# xmcd
#
# Track frame offsets:
#	150
#	15355
#	32160
#	43678
#	54830
#
# Disc length: 900 seconds
# Revision: 2
# Processed by: cddbd v1.5.2PL0 Copyright (c) Steve Scherf et al.
# Submitted via: dBpowerAMP V12.0
#
DISCID=30038205
DTITLE=Various Artist - Walk The Line (Wal-Mart)
DYEAR=2005
DGENRE=Soundtrack
TTITLE0=Joaquin Phoenix - I Walk The Line
TTITLE1=Joaquin Phoenix - Ring Of Fire
TTITLE2=Reese Witherspoon - Wildwood Flower
TTITLE3=Joaquin Phoenix - Get Rhythm
TTITLE4=Joaquin Phoenix and Reese Witherspoon - Jackson
EXTD=
EXTT0=
EXTT1=
EXTT2=
EXTT3=
EXTT4=
PLAYORDER=
